<svg xmlns="http://www.w3.org/2000/svg" style="display: none;">
  
    <symbol id="icon-alcoholic" viewBox="0 0 512 512">
      <path d="m276 264l142-205c3-4 4-10 2-16-2-5-6-9-11-9l-44 0 15-21c3-3 2-8 0-11-2-3-6-3-8 0l-23 32-248 0c-5 0-9 4-11 9-2 6-1 12 2 16l142 205c2 2 3 4 5 6l0 180c0 9-4 18-11 21l-48 22c0 0 0 0 0 0-4 2-5 6-5 11 1 5 4 8 8 8l144 0c4 0 7-3 8-8 0-5-1-9-5-11 0 0 0 0 0 0l-48-22c-6-3-11-12-11-21l0-180c2-2 3-4 5-6z m78-215l55 0c0 0 0 0 0 0 0 0 0 0 0 0 0 0 0 0 0 0l-35 51-28 0c3-11 1-23-5-33z m-75 436l25 12-98 0 25-12c12-5 20-19 20-35l0-174c0 0 0 0 0 0 0 0 1 0 1 0 0 0 0 0 1 0 0 0 0 0 0 0 1 0 1 0 2 0 1 0 1 0 2 0 0 0 0 0 0 0 1 0 1 0 1 0 0 0 1 0 1 0 0 0 0 0 0 0l0 174c0 16 8 30 20 35z m-12-231c-1 2-3 4-4 5 0 0 0 0 0 0-5 3-11 3-16 0 0 0 0 0 0 0-1-1-3-3-4-5l-97-139 22 0c3 0 5-3 5-7 0-5-2-8-5-8l-32 0-35-51c0 0 0 0 0 0 0 0 0 0 0 0 0 0 0 0 0 0l237 0-5 7c-5-4-10-6-16-6-7 0-14 3-19 10-5 7-7 16-7 26 0 1 0 3 1 4-9-2-17 2-23 10 0 0 0 0 0 0l-75 0c-3 0-6 3-6 8 0 4 3 7 6 7l69 0c-1 5-1 10 0 15-1-1-2-1-3-1-8 0-14 4-19 10-9 13-9 32-1 46l-7 9c-2 3-2 8 1 11 1 1 2 2 3 2 2 0 4-1 5-3l6-8c5 4 10 6 15 6 1 0 1 0 1 0 8 0 14-3 19-10 5-7 7-16 7-26 0-1-1-3-1-4 2 0 3 1 4 1 7 0 14-4 19-11 5-8 7-19 6-29 1 0 2 0 3 0 0 0 0 0 1 0 6 0 12-3 16-8l26 0z m11-144c2-4 6-5 10-5 4 0 9 2 13 7 7 8 8 22 2 30-5 8-16 7-23-2 0 0 0 0 0 0-7-8-8-22-2-30z m-3 72c-3 3-7 5-11 5-5 0-9-2-13-7-7-9-8-22-2-30 2-4 6-6 10-6 0 0 0 0 1 0 4 0 9 3 12 7 0 0 0 0 0 0 4 5 6 10 6 16 1 6-1 11-3 15z m28-97c-1-6 1-11 3-15 3-3 6-5 11-5 0 0 0 0 0 0 5 0 9 3 13 7 7 9 8 22 2 30-3 4-6 6-11 6-4 0-9-3-12-7-4-5-6-10-6-16z"/>
    </symbol>
  
    <symbol id="icon-category" viewBox="0 0 512 512">
      <path d="m156 231l-81 0c-41 0-75-34-75-75l0-81c0-41 34-75 75-75l81 0c41 0 75 34 75 75l0 81c0 41-34 75-75 75z m-81-201c-25 0-45 20-45 45l0 81c0 25 20 45 45 45l81 0c25 0 45-20 45-45l0-81c0-25-20-45-45-45z m81 482l-81 0c-41 0-75-34-75-75l0-81c0-41 34-75 75-75l81 0c41 0 75 34 75 75l0 81c0 41-34 75-75 75z m-81-201c-25 0-45 20-45 45l0 81c0 25 20 45 45 45l81 0c25 0 45-20 45-45l0-81c0-25-20-45-45-45z m362 201l-81 0c-41 0-75-34-75-75l0-81c0-41 34-75 75-75l81 0c41 0 75 34 75 75l0 81c0 41-34 75-75 75z m-81-201c-25 0-45 20-45 45l0 81c0 25 20 45 45 45l81 0c25 0 45-20 45-45l0-81c0-25-20-45-45-45z m81-80l-81 0c-41 0-75-34-75-75l0-81c0-41 34-75 75-75l81 0c41 0 75 34 75 75l0 81c0 41-34 75-75 75z m-81-201c-25 0-45 20-45 45l0 81c0 25 20 45 45 45l81 0c25 0 45-20 45-45l0-81c0-25-20-45-45-45z"/>
    </symbol>
  
    <symbol id="icon-ingredients" viewBox="0 0 512 512">
      <path d="m473 484c0-10 0-249 0-258 0-21-9-40-25-54-8-6-14-16-15-26 0 0 0 0 0 0 0-4 0 3 0-94 4-3 7-7 7-12l0-26c0-8-6-14-13-14l-46 0c-8 0-14 6-14 14l0 26c0 5 3 9 8 12 0 97 0 90-1 94 0 0 0 0 0 0-1 10-6 20-14 26-16 14-26 33-26 54l0 16c-4-12-9-25-15-36-19-37-26-85-27-126 4-3 7-8 7-15l0-47c0-10-8-18-18-18l-36 0c-10 0-18 8-18 18l0 47c0 7 3 12 8 15-2 41-9 89-28 126-10 21-18 43-23 65-2-8-4-17-6-26-17-68-25-127-29-166 1-3 2-6 2-9l0-55c0-8-7-15-15-15l-41 0c-9 0-15 7-15 15l0 55c0 3 0 6 2 9-4 39-12 98-29 166-10 38-14 77-14 115l0 134c0 10 8 18 18 18l117 0c4 0 9-2 12-5 4 3 9 5 15 5l125 0c7 0 13-3 17-8 5 5 12 8 20 8l82 0c15 0 28-13 28-28z m-124-233l109 0 0 181-109 0c0-6 0-174 0-181z m69-108c-5 2-9 4-14 4-5 0-10-2-14-4 0-1 0 5 0-90l28 0c0 95 0 89 0 90z m-36-128l43 0 0 23-43 0z m-13 169c9-7 15-16 18-26 5 3 11 4 17 4 6 0 11-1 17-4 3 10 9 19 17 26 13 10 20 26 20 42l0 10-109 0 0-10c0-16 8-32 20-42z m-120-100l28 0c1 34 6 69 17 101-14 22-47 22-62 0 11-32 16-67 17-101z m-7-66c0-1 2-3 3-3l36 0c2 0 3 2 3 3l0 47c0 2-1 4-3 4l-36 0c-1 0-3-2-3-4z m-21 195c2-4 3-8 5-12 20 21 54 21 74 0 2 4 4 8 6 12 16 31 25 65 28 100l-141 0c2-35 12-69 28-100z m-167 147c0-26 2-53 7-79l109 0c0 0 0 0 0 1 5 26 7 53 7 78l0 102-123 0z m41-345c0 0 0 0 0 0l41 0c0 0 0 0 0 0l0 55c0 1 0 1 0 1 0 0 0 0 0 0 0 0 0 0 0 0 0 0 0 0 0 0l-41 0c0 0 0 0 0 0 0 0 0 0 0 0 0 0 0 0 0 0 0 0 0 0 0-1z m1 71l39 0c4 39 12 97 28 163 2 6 3 11 4 17l-104 0c2-6 3-11 4-17 17-66 25-124 29-163z m81 408c0 2-2 3-3 3l-117 0c-2 0-3-1-3-3l0-17 123 0c0 9 0 7 0 17z m157-6c0 5-3 9-8 9l-125 0c-5 0-9-4-9-9 0-5 0-121 0-128l0-29c0-1 0-2 0-3l142 0c0 1 0 2 0 3z m111 9l-82 0c-8 0-14-6-14-13l0-37 109 0 0 37c0 7-6 13-13 13z m-298-134l-63 0c-7 0-12 6-12 13l0 55c0 6 5 12 12 12l63 0c6 0 12-6 12-12l0-55c0-7-6-13-12-13z m-3 65l-57 0 0-50 57 0z m-42-84l27 0c4 0 7-3 7-7 0-4-3-8-7-8l-27 0c-4 0-8 4-8 8 0 4 4 7 8 7z m205-1l-26 0c-5 0-8 3-8 7 0 4 3 8 8 8l23 0 0 49-82 0 0-49 24 0c4 0 7-4 7-8 0-4-3-7-7-7l-27 0c-7 0-12 5-12 12l0 55c0 7 5 12 12 12l88 0c7 0 12-5 12-12l0-55c0-7-5-12-12-12z m121-42l-48 0c-7 0-13 6-13 13l0 87c0 7 6 13 13 13l48 0c7 0 13-6 13-13l0-26c0-4-4-7-8-7-4 0-7 3-7 7l0 24-44 0 0-83 44 0 0 24c0 4 3 8 7 8 4 0 8-4 8-8l0-26c0-7-6-13-13-13z"/>
    </symbol>
  
    <symbol id="icon-loupe" viewBox="0 0 512 512">
      <path d="m376 331c31-42 45-95 39-147-6-52-32-100-72-134-39-34-91-52-143-50-52 2-102 24-139 61-37 37-59 87-61 139-2 53 16 104 50 143 34 40 82 66 134 72 52 6 105-8 147-39l0 0c1 1 2 2 3 3l123 124c6 6 14 9 23 9 8 0 17-3 23-9 6-6 9-15 9-23 0-9-3-17-9-23l-124-123c-1-1-2-2-3-3z m8-123c0 23-5 46-13 67-9 22-22 41-39 57-16 17-35 30-57 39-21 8-44 13-67 13-23 0-46-5-67-13-22-9-41-22-57-39-17-16-30-35-39-57-8-21-13-44-13-67 0-47 19-92 52-125 33-33 77-51 124-51 47 0 91 18 124 51 33 33 52 78 52 125z"/>
    </symbol>
  
    <symbol id="icon-non-alcoholic" viewBox="0 0 512 512">
      <path d="m502 207l-82 0 0-22c0-5-4-10-10-10l-216 0c-6 0-10 5-10 10 0 6 4 10 10 10l206 0 0 77c0 67-36 130-94 164l-192 0c-58-34-94-97-94-164l0-77 67 0c6 0 10-4 10-10 0-5-4-10-10-10l-77 0c-6 0-10 5-10 10l0 87c0 38 10 75 29 107 13 22 30 41 50 57l-69 0c-6 0-10 4-10 10 0 36 30 66 66 66l312 0c36 0 66-30 66-66 0-6-4-10-10-10l-93 0c18-15 34-32 46-52l29 0c53 0 96-43 96-96l0-71c0-6-4-10-10-10z m-79 249c-5 21-23 36-45 36l-312 0c-22 0-40-15-45-36z m-3-184l0-5 32 0 0 21c0 20-16 36-36 36l-3 0c5-17 7-34 7-52z m72 16c0 42-34 76-76 76l-17 0c3-6 6-13 8-20l9 0c31 0 56-25 56-56l0-31c0-6-4-10-10-10l-42 0 0-20 72 0z m-272-233l-6-6c-7-10-7-23 0-33 4-4 3-10-1-14-5-3-11-3-14 2-14 17-14 40 0 57l5 7c10 12 10 30 0 42l-5 7c-4 4-3 11 1 14 2 2 4 2 6 2 3 0 6-1 8-3l6-7c15-20 15-48 0-68z m55 23l-5-7c-8-9-8-23 0-32 3-5 2-11-2-14-4-4-10-3-14 1-13 17-13 41 0 58l5 6c10 13 10 30 0 43l-5 7c-3 4-3 10 2 14 1 1 4 2 6 2 3 0 6-1 8-4l5-7c16-20 16-47 0-67z m-111 0l-5-7c-8-9-8-23 0-32 3-5 3-11-2-14-4-4-10-3-14 1-13 17-13 41 0 58l5 6c10 13 10 30 1 43l-6 7c-3 4-3 10 2 14 2 1 4 2 6 2 3 0 6-1 8-4l5-7c16-20 16-47 0-67z m-14 100c-2-2-4-3-7-3-2 0-5 1-7 3-2 2-3 5-3 7 0 3 1 6 3 7 2 2 5 3 7 3 3 0 5-1 7-3 2-1 3-4 3-7 0-2-1-5-3-7z m212 84c-6 0-10 4-10 10 0 37-15 74-41 100-4 4-4 10 0 14 2 2 4 3 7 3 2 0 5-1 7-3 30-30 47-72 47-114 0-6-4-10-10-10z m-68 137c-3-5-9-6-14-4l0 1c-5 2-6 8-4 13 2 3 5 5 9 5 2 0 3 0 5-1l0 0c5-3 7-9 4-14z"/>
    </symbol>
  
    <symbol id="icon-not-found" viewBox="0 0 512 512">
      <path d="m344 0c-92 0-168 75-168 168 0 43 17 83 44 113l-31 31 0 0c-4-5-10-7-17-7-6 0-12 2-16 7l-147 146c-12 12-12 32 0 45 6 6 14 9 23 9 8 0 16-3 22-9l146-147c5-4 7-10 7-16 0-7-2-13-7-17l0 0 31-31c30 27 70 44 113 44 93 0 168-76 168-168 0-93-75-168-168-168z m-301 492c-6 7-17 7-23 0-7-6-7-17 0-23l123-123 23 23z m147-146l-13 12-23-23 12-13c2-1 4-2 6-2 3 0 5 1 6 2l12 12c1 1 2 3 2 6 0 2-1 4-2 6z m154-25c-84 0-153-69-153-153 0-84 69-153 153-153 84 0 153 69 153 153 0 84-69 153-153 153z m96-249c-48-48-125-53-179-11-3 2-4 7-1 10 2 3 7 4 10 1 48-37 117-32 160 10 43 43 47 112 10 160-3 3-2 8 1 10 1 1 3 2 4 2 3 0 5-1 6-3 42-54 37-131-11-179z m-22 191c-22 17-48 26-74 26-31 0-62-12-85-36-43-43-47-111-10-159 2-3 2-8-1-11-4-2-8-2-11 2-42 54-37 131 11 179 26 26 61 39 96 39 29 0 59-9 83-28 4-3 4-7 2-11-3-3-8-3-11-1z m-135-98c1 2 3 2 5 2 2 0 4 0 5-2l11-11 11 11c1 2 3 2 5 2 2 0 4 0 5-2 3-3 3-8 0-10l-10-11 10-11c3-3 3-8 0-11-3-2-7-2-10 0l-11 11-11-11c-3-2-7-2-10 0-3 3-3 8 0 11l10 11-10 11c-3 2-3 7 0 10z m80 0c1 2 3 2 5 2 2 0 4 0 6-2l10-11 11 11c1 2 3 2 5 2 2 0 4 0 6-2 3-3 3-8 0-10l-11-11 11-11c3-3 3-8 0-11-3-2-8-2-11 0l-11 11-10-11c-3-2-8-2-11 0-3 3-3 8 0 11l11 11-11 11c-3 2-3 7 0 10z m-64 54c-3 3-3 7 0 10 1 2 3 2 5 2 2 0 4 0 5-2 9-9 22-14 35-14 13 0 26 5 35 14 3 3 8 3 11 0 2-3 2-7 0-10-12-12-29-19-46-19-17 0-34 7-45 19z"/>
    </symbol>
  
    <symbol id="icon-back" viewBox="0 0 512 512">
      <path d="m481 220c-2 0-4 0-6 0l-361 0 8-4c7-4 14-9 20-15l102-101c13-13 15-33 5-49-12-16-35-19-51-7-2 0-3 2-4 3l-183 183c-15 14-15 37 0 52 0 0 0 0 0 0l183 183c14 14 37 14 52 0 1-1 2-3 3-4 10-15 8-36-5-48l-102-102c-5-5-11-10-18-13l-11-5 360 0c19 1 35-13 39-31 3-20-11-39-31-42z"/>
    </symbol>
  
</svg>
