<svg width="100" height="50" viewBox="0 0 100 50" fill="none" xmlns="http://www.w3.org/2000/svg">
<path d="M23.8683 39.5376C17.5148 39.5376 12.3457 34.4439 12.3457 28.1831C12.3457 27.7354 11.977 27.3721 11.5226 27.3721C11.0683 27.3721 10.6996 27.7354 10.6996 28.1831C10.6996 35.3385 16.607 41.1597 23.8683 41.1597C24.3227 41.1597 24.6914 40.7963 24.6914 40.3486C24.6914 39.9009 24.3227 39.5376 23.8683 39.5376Z" fill="currentColor"/>
<path d="M39.3358 12.1304C39.6572 12.4471 40.1782 12.4471 40.4996 12.1304C40.821 11.8137 40.821 11.3003 40.4996 10.9836L35.1498 5.71187C34.9478 5.51195 34.6543 5.43165 34.3753 5.49735C34.0959 5.56304 33.8725 5.76742 33.784 6.03587L29.4424 19.2618H17.8642L16.179 14.6125L20.828 13.1401C21.037 13.0736 21.2107 12.928 21.3099 12.735C21.4095 12.542 21.4263 12.3177 21.3572 12.1125C20.3786 9.20579 17.6267 7.0963 14.8148 7.0963C14.3654 7.0963 13.837 7.17619 13.244 7.32744L12.6991 5.98397C12.5304 5.56872 12.0526 5.36637 11.6283 5.53263C11.2069 5.69848 11.0016 6.1705 11.1699 6.58697L11.6913 7.87083C8.61311 9.32745 7.12011 12.8502 8.27237 16.2731C8.38678 16.6134 8.70776 16.8287 9.05344 16.8287C9.13657 16.8287 9.22176 16.8161 9.3053 16.7898L14.6111 15.1089L16.116 19.2618H10.5724C10.2876 19.2618 10.0226 19.4066 9.8732 19.6454C8.26003 22.2079 7.40735 25.1596 7.40735 28.1831C7.40735 37.1276 14.7917 44.4038 23.8683 44.4038C32.9449 44.4038 40.3293 37.1276 40.3293 28.1831C40.3293 25.1596 39.4766 22.2079 37.8634 19.6454C37.7136 19.407 37.449 19.2618 37.1642 19.2618H31.1729L34.9367 7.79622L39.3358 12.1304ZM13.0164 9.08252C13.7452 8.84488 14.3675 8.71836 14.8148 8.71836C16.6588 8.71836 18.5436 10.027 19.4761 11.8644L9.62999 14.9828C9.1411 12.3964 10.523 9.89842 13.0164 9.08252ZM38.6832 28.1831C38.6832 36.2335 32.0375 42.7817 23.8683 42.7817C15.6991 42.7817 9.05344 36.2335 9.05344 28.1831C9.05344 25.6118 9.73863 23.098 11.0386 20.8839H17.2827C17.2831 20.8839 17.2835 20.8839 17.2839 20.8839C17.2847 20.8839 17.2856 20.8839 17.2864 20.8839H30.0399C30.0403 20.8839 30.0408 20.8839 30.0412 20.8839C30.0416 20.8839 30.042 20.8839 30.0424 20.8839H36.698C37.998 23.098 38.6832 25.6118 38.6832 28.1831Z" fill="currentColor"/>
<path d="M56.1674 29.6961L53.3155 11.2763C53.2308 10.7476 53.0896 10.219 52.2425 10.219H51.1413L48.1482 29.6961H50.3789L52.1578 16.2847L53.9367 29.6961H56.1674ZM73.9706 10.219V29.6961H73.0388C71.9375 29.6961 71.7681 28.8335 71.6834 28.444L69.5092 18.8167V29.6961H67.4762V10.219H68.408C69.5374 10.219 69.7351 10.7476 69.848 11.3041L71.9375 21.4322V10.219H73.9706ZM92.5926 10.219L90.1643 21.5992V29.6961H88.7242C88.4136 29.6961 88.1595 29.4456 88.1313 29.1118V21.5992L85.7029 10.219H87.1994C87.2559 10.219 87.7642 10.2468 87.8489 10.8868L89.1478 18.2602L90.4467 10.8868C90.5314 10.2468 91.0396 10.219 91.0961 10.219H92.5926V10.219Z" fill="currentColor"/>
<path d="M50.1829 37.3675V38.9077C50.1829 39.3451 49.8314 39.7006 49.3875 39.7188H48.9806C48.5181 39.7188 48.1482 39.3543 48.1482 38.9077V34.0228C48.1482 33.5762 48.5181 33.2117 48.9806 33.2117H49.3875C49.8314 33.2208 50.1829 33.5853 50.1829 34.0228V34.9979C50.1829 35.2076 50.0904 35.3078 50.0072 35.3443L49.5262 35.563V34.1321C49.5262 33.9408 49.369 33.7858 49.1655 33.7858C48.9713 33.7858 48.8141 33.9408 48.8141 34.1321V38.7892C48.8141 38.9897 48.9713 39.1446 49.1655 39.1446C49.369 39.1446 49.5262 38.9897 49.5262 38.7892V37.9325C49.5262 37.7229 49.6187 37.6227 49.702 37.5771C49.7575 37.5498 50.0164 37.4404 50.1829 37.3675V37.3675ZM55.1726 33.2117H55.6812C56.1252 33.2299 56.4859 33.5853 56.4859 34.0228V38.9168C56.4766 39.3543 56.1252 39.7006 55.6812 39.7188H55.1726C54.7194 39.7188 54.3494 39.3543 54.3402 38.9168V34.0228C54.3402 33.5762 54.7101 33.2117 55.1726 33.2117V33.2117ZM55.3575 39.1446H55.4593C55.6535 39.1446 55.8107 38.9897 55.8107 38.7892V34.1413C55.8107 33.9408 55.6535 33.7858 55.4593 33.7858H55.3575C55.1633 33.7949 55.0061 33.9499 55.0061 34.1413V38.7892C55.0061 38.9806 55.1633 39.1355 55.3575 39.1446ZM62.7148 37.3675V38.9077C62.7148 39.3451 62.3634 39.7006 61.9195 39.7188H61.5125C61.0501 39.7188 60.6801 39.3543 60.6801 38.9077V34.0228C60.6801 33.5762 61.0501 33.2117 61.5125 33.2117H61.9195C62.3634 33.2208 62.7148 33.5853 62.7148 34.0228V34.9979C62.7148 35.2076 62.6223 35.3078 62.5391 35.3443L62.0582 35.563V34.1321C62.0582 33.9408 61.901 33.7858 61.6975 33.7858C61.5033 33.7858 61.346 33.9408 61.346 34.1321V38.7892C61.346 38.9897 61.5033 39.1446 61.6975 39.1446C61.901 39.1446 62.0582 38.9897 62.0582 38.7892V37.9325C62.0582 37.7229 62.1507 37.6227 62.2339 37.5771C62.2894 37.5498 62.5484 37.4404 62.7148 37.3675V37.3675ZM69.3138 39.655H68.6201L67.7322 36.8024V39.655H67.0756V33.5215C67.0756 33.321 67.2143 33.2846 67.2883 33.2755H67.7322V35.5994L68.5461 33.2937H69.2398L68.1947 36.1645L69.3138 39.655ZM75.515 33.2755L75.293 33.7494C75.256 33.8314 75.1543 33.9225 74.9416 33.9225H74.4236C74.3312 33.9225 74.2664 33.9954 74.2572 34.0775V39.655H73.7855C73.6283 39.655 73.6005 39.5639 73.6005 39.5183V33.9225H72.6664V33.476C72.6664 33.3666 72.7589 33.2755 72.8699 33.2755H75.515V33.2755ZM81.1428 39.655L80.2087 33.6218C80.1809 33.4486 80.1347 33.2755 79.8572 33.2755H79.4965L78.5162 39.655H79.2468L79.8295 35.2622L80.4122 39.655H81.1428ZM85.1151 33.2755H85.5128C85.707 33.2755 85.781 33.4213 85.781 33.5306V39.655H85.3093C85.1521 39.655 85.1243 39.5639 85.1151 39.5183V33.2755ZM91.0944 39.0079H92.5926C92.5186 39.172 92.4077 39.4272 92.3799 39.4819C92.3337 39.5639 92.2319 39.655 92.0192 39.655H90.4285V33.2755H90.8909C91.0019 33.2846 91.0944 33.3666 91.0944 33.476V39.0079Z" fill="currentColor"/>
</svg>
